<svg width="219" height="123" viewBox="0 0 219 123" fill="none" xmlns="http://www.w3.org/2000/svg">
<path d="M10.2773 1.31641V46.8164H2.43359V1.31641H10.2773ZM28.8398 21.2227V27.4414H8.27734V21.2227H28.8398ZM31.4336 1.31641V7.56641H8.27734V1.31641H31.4336ZM73.9648 22.8164V25.3164C73.9648 28.7539 73.5169 31.8372 72.6211 34.5664C71.7253 37.2956 70.444 39.6185 68.7773 41.5352C67.1315 43.4518 65.1523 44.9206 62.8398 45.9414C60.5273 46.9414 57.9648 47.4414 55.1523 47.4414C52.3607 47.4414 49.8086 46.9414 47.4961 45.9414C45.2044 44.9206 43.2148 43.4518 41.5273 41.5352C39.8398 39.6185 38.5273 37.2956 37.5898 34.5664C36.6732 31.8372 36.2148 28.7539 36.2148 25.3164V22.8164C36.2148 19.3789 36.6732 16.306 37.5898 13.5977C38.5065 10.8685 39.7982 8.54557 41.4648 6.62891C43.1523 4.69141 45.1419 3.22266 47.4336 2.22266C49.7461 1.20182 52.2982 0.691406 55.0898 0.691406C57.9023 0.691406 60.4648 1.20182 62.7773 2.22266C65.0898 3.22266 67.0794 4.69141 68.7461 6.62891C70.4128 8.54557 71.694 10.8685 72.5898 13.5977C73.5065 16.306 73.9648 19.3789 73.9648 22.8164ZM66.1211 25.3164V22.7539C66.1211 20.2122 65.8711 17.9727 65.3711 16.0352C64.8919 14.0768 64.1732 12.4414 63.2148 11.1289C62.2773 9.79557 61.1211 8.79557 59.7461 8.12891C58.3711 7.44141 56.819 7.09766 55.0898 7.09766C53.3607 7.09766 51.819 7.44141 50.4648 8.12891C49.1107 8.79557 47.9544 9.79557 46.9961 11.1289C46.0586 12.4414 45.3398 14.0768 44.8398 16.0352C44.3398 17.9727 44.0898 20.2122 44.0898 22.7539V25.3164C44.0898 27.8581 44.3398 30.1081 44.8398 32.0664C45.3398 34.0247 46.069 35.681 47.0273 37.0352C48.0065 38.3685 49.1732 39.3789 50.5273 40.0664C51.8815 40.7331 53.4232 41.0664 55.1523 41.0664C56.9023 41.0664 58.4544 40.7331 59.8086 40.0664C61.1628 39.3789 62.3086 38.3685 63.2461 37.0352C64.1836 35.681 64.8919 34.0247 65.3711 32.0664C65.8711 30.1081 66.1211 27.8581 66.1211 25.3164ZM81.8086 1.31641H97.9023C101.361 1.31641 104.309 1.83724 106.746 2.87891C109.184 3.92057 111.048 5.46224 112.34 7.50391C113.652 9.52474 114.309 12.0247 114.309 15.0039C114.309 17.2747 113.892 19.2747 113.059 21.0039C112.225 22.7331 111.048 24.1914 109.527 25.3789C108.007 26.5456 106.194 27.4518 104.09 28.0977L101.715 29.2539H87.2461L87.1836 23.0352H98.0273C99.9023 23.0352 101.465 22.7018 102.715 22.0352C103.965 21.3685 104.902 20.4622 105.527 19.3164C106.173 18.1497 106.496 16.8372 106.496 15.3789C106.496 13.7956 106.184 12.4206 105.559 11.2539C104.954 10.0664 104.017 9.16016 102.746 8.53516C101.475 7.88932 99.8607 7.56641 97.9023 7.56641H89.6523V46.8164H81.8086V1.31641ZM107.777 46.8164L97.0898 26.3789L105.309 26.3477L116.152 46.4102V46.8164H107.777ZM125.309 1.31641H132.309L145.465 36.4102L158.59 1.31641H165.59L148.215 46.8164H142.652L125.309 1.31641ZM122.121 1.31641H128.777L129.934 31.6914V46.8164H122.121V1.31641ZM162.121 1.31641H168.809V46.8164H160.965V31.6914L162.121 1.31641ZM196.402 7.37891L182.809 46.8164H174.59L191.715 1.31641H196.965L196.402 7.37891ZM207.777 46.8164L194.152 7.37891L193.559 1.31641H198.84L216.027 46.8164H207.777ZM207.121 29.9414V36.1602H182.371V29.9414H207.121ZM26.3711 110.098C26.3711 109.16 26.2253 108.327 25.9336 107.598C25.6628 106.868 25.1732 106.202 24.4648 105.598C23.7565 104.993 22.7565 104.41 21.4648 103.848C20.194 103.264 18.569 102.671 16.5898 102.066C14.4232 101.4 12.4232 100.66 10.5898 99.8477C8.77734 99.0143 7.19401 98.056 5.83984 96.9727C4.48568 95.8685 3.43359 94.6081 2.68359 93.1914C1.93359 91.7539 1.55859 90.0977 1.55859 88.2227C1.55859 86.3685 1.94401 84.681 2.71484 83.1602C3.50651 81.6393 4.62109 80.3268 6.05859 79.2227C7.51693 78.0977 9.23568 77.2331 11.2148 76.6289C13.194 76.0039 15.3815 75.6914 17.7773 75.6914C21.1523 75.6914 24.0586 76.3164 26.4961 77.5664C28.9544 78.8164 30.8398 80.4935 32.1523 82.5977C33.4857 84.7018 34.1523 87.0247 34.1523 89.5664H26.3711C26.3711 88.0664 26.0482 86.7435 25.4023 85.5977C24.7773 84.431 23.819 83.5143 22.5273 82.8477C21.2565 82.181 19.6419 81.8477 17.6836 81.8477C15.8294 81.8477 14.2878 82.1289 13.0586 82.6914C11.8294 83.2539 10.9128 84.0143 10.3086 84.9727C9.70443 85.931 9.40234 87.0143 9.40234 88.2227C9.40234 89.0768 9.60026 89.8581 9.99609 90.5664C10.3919 91.2539 10.9961 91.8997 11.8086 92.5039C12.6211 93.0872 13.6419 93.6393 14.8711 94.1602C16.1003 94.681 17.5482 95.181 19.2148 95.6602C21.7357 96.4102 23.9336 97.2435 25.8086 98.1602C27.6836 99.056 29.2461 100.077 30.4961 101.223C31.7461 102.368 32.6836 103.671 33.3086 105.129C33.9336 106.566 34.2461 108.202 34.2461 110.035C34.2461 111.952 33.8607 113.681 33.0898 115.223C32.319 116.743 31.2148 118.046 29.7773 119.129C28.3607 120.191 26.6523 121.014 24.6523 121.598C22.6732 122.16 20.4648 122.441 18.0273 122.441C15.8398 122.441 13.6836 122.15 11.5586 121.566C9.45443 120.983 7.53776 120.098 5.80859 118.91C4.07943 117.702 2.70443 116.202 1.68359 114.41C0.66276 112.598 0.152344 110.483 0.152344 108.066H7.99609C7.99609 109.546 8.24609 110.806 8.74609 111.848C9.26693 112.889 9.98568 113.743 10.9023 114.41C11.819 115.056 12.8815 115.535 14.0898 115.848C15.319 116.16 16.6315 116.316 18.0273 116.316C19.8607 116.316 21.3919 116.056 22.6211 115.535C23.8711 115.014 24.8086 114.285 25.4336 113.348C26.0586 112.41 26.3711 111.327 26.3711 110.098ZM59.9023 76.3164V121.816H52.1211V76.3164H59.9023ZM74.1836 76.3164V82.5664H37.9648V76.3164H74.1836ZM105.715 76.3164H113.527V106.723C113.527 110.181 112.777 113.077 111.277 115.41C109.777 117.743 107.736 119.504 105.152 120.691C102.59 121.858 99.7253 122.441 96.5586 122.441C93.2878 122.441 90.3711 121.858 87.8086 120.691C85.2461 119.504 83.2253 117.743 81.7461 115.41C80.2878 113.077 79.5586 110.181 79.5586 106.723V76.3164H87.3711V106.723C87.3711 108.91 87.7461 110.712 88.4961 112.129C89.2461 113.525 90.3086 114.556 91.6836 115.223C93.0586 115.889 94.6836 116.223 96.5586 116.223C98.4336 116.223 100.048 115.889 101.402 115.223C102.777 114.556 103.84 113.525 104.59 112.129C105.34 110.712 105.715 108.91 105.715 106.723V76.3164ZM135.277 121.816H125.559L125.621 115.598H135.277C138.09 115.598 140.444 114.983 142.34 113.754C144.257 112.525 145.694 110.764 146.652 108.473C147.632 106.181 148.121 103.452 148.121 100.285V97.8164C148.121 95.3581 147.84 93.181 147.277 91.2852C146.736 89.3893 145.923 87.7956 144.84 86.5039C143.777 85.2122 142.465 84.2331 140.902 83.5664C139.361 82.8997 137.579 82.5664 135.559 82.5664H125.371V76.3164H135.559C138.579 76.3164 141.34 76.8268 143.84 77.8477C146.34 78.8477 148.496 80.2956 150.309 82.1914C152.142 84.0872 153.548 86.3581 154.527 89.0039C155.507 91.6497 155.996 94.6081 155.996 97.8789V100.285C155.996 103.556 155.507 106.514 154.527 109.16C153.548 111.806 152.142 114.077 150.309 115.973C148.475 117.848 146.288 119.296 143.746 120.316C141.225 121.316 138.402 121.816 135.277 121.816ZM129.902 76.3164V121.816H122.059V76.3164H129.902ZM172.246 76.3164V121.816H164.402V76.3164H172.246ZM218.277 97.8164V100.316C218.277 103.754 217.829 106.837 216.934 109.566C216.038 112.296 214.757 114.618 213.09 116.535C211.444 118.452 209.465 119.921 207.152 120.941C204.84 121.941 202.277 122.441 199.465 122.441C196.673 122.441 194.121 121.941 191.809 120.941C189.517 119.921 187.527 118.452 185.84 116.535C184.152 114.618 182.84 112.296 181.902 109.566C180.986 106.837 180.527 103.754 180.527 100.316V97.8164C180.527 94.3789 180.986 91.306 181.902 88.5977C182.819 85.8685 184.111 83.5456 185.777 81.6289C187.465 79.6914 189.454 78.2227 191.746 77.2227C194.059 76.2018 196.611 75.6914 199.402 75.6914C202.215 75.6914 204.777 76.2018 207.09 77.2227C209.402 78.2227 211.392 79.6914 213.059 81.6289C214.725 83.5456 216.007 85.8685 216.902 88.5977C217.819 91.306 218.277 94.3789 218.277 97.8164ZM210.434 100.316V97.7539C210.434 95.2122 210.184 92.9727 209.684 91.0352C209.204 89.0768 208.486 87.4414 207.527 86.1289C206.59 84.7956 205.434 83.7956 204.059 83.1289C202.684 82.4414 201.132 82.0977 199.402 82.0977C197.673 82.0977 196.132 82.4414 194.777 83.1289C193.423 83.7956 192.267 84.7956 191.309 86.1289C190.371 87.4414 189.652 89.0768 189.152 91.0352C188.652 92.9727 188.402 95.2122 188.402 97.7539V100.316C188.402 102.858 188.652 105.108 189.152 107.066C189.652 109.025 190.382 110.681 191.34 112.035C192.319 113.368 193.486 114.379 194.84 115.066C196.194 115.733 197.736 116.066 199.465 116.066C201.215 116.066 202.767 115.733 204.121 115.066C205.475 114.379 206.621 113.368 207.559 112.035C208.496 110.681 209.204 109.025 209.684 107.066C210.184 105.108 210.434 102.858 210.434 100.316Z" fill="#F5F5F5"/>
</svg>
