<svg width="326" height="59" viewBox="0 0 326 59" fill="none" xmlns="http://www.w3.org/2000/svg">
<path d="M26.5979 5.85411C27.1966 4.01149 29.8034 4.01148 30.4021 5.8541L34.6741 19.002C34.9419 19.8261 35.7098 20.384 36.5763 20.384H50.4008C52.3383 20.384 53.1438 22.8632 51.5764 24.002L40.3921 32.1279C39.6911 32.6372 39.3978 33.5399 39.6655 34.364L43.9376 47.5119C44.5363 49.3545 42.4273 50.8868 40.8599 49.748L29.6756 41.6221C28.9746 41.1128 28.0254 41.1128 27.3244 41.6221L16.1402 49.748C14.5727 50.8868 12.4638 49.3545 13.0625 47.5119L17.3345 34.364C17.6022 33.5399 17.3089 32.6372 16.6079 32.1279L5.42365 24.002C3.85622 22.8632 4.66177 20.384 6.59922 20.384H20.4238C21.2902 20.384 22.0581 19.8261 22.3259 19.002L26.5979 5.85411Z" fill="#FFD336"/>
<path d="M93.5979 5.85411C94.1966 4.01149 96.8034 4.01148 97.4021 5.8541L101.674 19.002C101.942 19.8261 102.71 20.384 103.576 20.384H117.401C119.338 20.384 120.144 22.8632 118.576 24.002L107.392 32.1279C106.691 32.6372 106.398 33.5399 106.666 34.364L110.938 47.5119C111.536 49.3545 109.427 50.8868 107.86 49.748L96.6756 41.6221C95.9746 41.1128 95.0254 41.1128 94.3244 41.6221L83.1402 49.748C81.5727 50.8868 79.4638 49.3545 80.0625 47.5119L84.3345 34.364C84.6022 33.5399 84.3089 32.6372 83.6079 32.1279L72.4236 24.002C70.8562 22.8632 71.6618 20.384 73.5992 20.384H87.4238C88.2902 20.384 89.0581 19.8261 89.3259 19.002L93.5979 5.85411Z" fill="#FFD336"/>
<path d="M160.598 5.85411C161.197 4.01149 163.803 4.01148 164.402 5.8541L168.674 19.002C168.942 19.8261 169.71 20.384 170.576 20.384H184.401C186.338 20.384 187.144 22.8632 185.576 24.002L174.392 32.1279C173.691 32.6372 173.398 33.5399 173.666 34.364L177.938 47.5119C178.536 49.3545 176.427 50.8868 174.86 49.748L163.676 41.6221C162.975 41.1128 162.025 41.1128 161.324 41.6221L150.14 49.748C148.573 50.8868 146.464 49.3545 147.062 47.5119L151.334 34.364C151.602 33.5399 151.309 32.6372 150.608 32.1279L139.424 24.002C137.856 22.8632 138.662 20.384 140.599 20.384H154.424C155.29 20.384 156.058 19.8261 156.326 19.002L160.598 5.85411Z" fill="#FFD336"/>
<path d="M227.598 5.85411C228.197 4.01149 230.803 4.01148 231.402 5.8541L235.674 19.002C235.942 19.8261 236.71 20.384 237.576 20.384H251.401C253.338 20.384 254.144 22.8632 252.576 24.002L241.392 32.1279C240.691 32.6372 240.398 33.5399 240.666 34.364L244.938 47.5119C245.536 49.3545 243.427 50.8868 241.86 49.748L230.676 41.6221C229.975 41.1128 229.025 41.1128 228.324 41.6221L217.14 49.748C215.573 50.8868 213.464 49.3545 214.062 47.5119L218.334 34.364C218.602 33.5399 218.309 32.6372 217.608 32.1279L206.424 24.002C204.856 22.8632 205.662 20.384 207.599 20.384H221.424C222.29 20.384 223.058 19.8261 223.326 19.002L227.598 5.85411Z" fill="#C4C4C4"/>
<path d="M294.598 5.85411C295.197 4.01149 297.803 4.01148 298.402 5.8541L302.674 19.002C302.942 19.8261 303.71 20.384 304.576 20.384H318.401C320.338 20.384 321.144 22.8632 319.576 24.002L308.392 32.1279C307.691 32.6372 307.398 33.5399 307.666 34.364L311.938 47.5119C312.536 49.3545 310.427 50.8868 308.86 49.748L297.676 41.6221C296.975 41.1128 296.025 41.1128 295.324 41.6221L284.14 49.748C282.573 50.8868 280.464 49.3545 281.062 47.5119L285.334 34.364C285.602 33.5399 285.309 32.6372 284.608 32.1279L273.424 24.002C271.856 22.8632 272.662 20.384 274.599 20.384H288.424C289.29 20.384 290.058 19.8261 290.326 19.002L294.598 5.85411Z" fill="#C4C4C4"/>
</svg>
